<!-- Generated by IcoMoon.io -->
<svg version="1.1" xmlns="http://www.w3.org/2000/svg" width="1000" height="1000" viewBox="0 0 1000 1000">
<title>email</title>
<path fill="#f58840" d="M730.4 608.6c0 42 11.95 58.75 43.2 58.75 69.65 0 114-88.75 114-236.35 0-225.6-164.4-333.6-369.65-333.6-211.15 0-403.2 141.6-403.2 409.2 0 255.6 168 394.8 426 394.8 87.6 0 146.4-9.6 236.35-39.6l19.3 80.35c-88.8 28.85-183.7 37.2-256.85 37.2-338.4 0-519.65-186-519.65-472.8 0-289.2 210.050-486 499.25-486 301.2 0 460.75 180 460.75 400.8 0 187.2-58.75 330-243.55 330-84.050 0-139.2-33.6-146.4-108.050-21.6 82.8-79.2 108.050-157.25 108.050-104.4 0-192-80.45-192-242.4 0-163.2 76.85-264 214.85-264 73.2 0 118.8 28.8 139.1 74.4l34.85-63.6h100.8v352.85h0.1zM582.85 450.2c0-65.95-49.25-93.6-90.050-93.6-44.4 0-93.55 35.95-93.55 141.6 0 84 37.2 130.8 93.55 130.8 39.6 0 90.050-25.2 90.050-94.8v-84z"></path>
</svg>
