<?xml version="1.0" standalone="no"?><svg xmlns:xlink="http://www.w3.org/1999/xlink" xmlns="http://www.w3.org/2000/svg" viewBox="0 0 1200 369.2256953642384" preserveAspectRatio="xMaxYMax slice"><g transform="scale(0.7947019867549668)"><rect x="0" y="0" width="1510" height="464.61538461538464" fill="#ffffff"/><rect x="116.15384615384616" y="0" width="116.15384615384616" height="116.15384615384616" fill="#ffffff"/><path d="M 174.23 116.16 A 58.08 58.08 0 0 1  232.31 58.08 L 174.23 116.16 A 58.08 58.08 0 0 0 232.31 58.08" fill="#f79a5d"/><rect x="232.30769230769232" y="0" width="116.15384615384616" height="116.15384615384616" fill="#ffffff"/><path d="M 290.38 0 A 58.08 58.08 0 0 1  348.46 58.08 L 290.38 0 A 58.08 58.08 0 0 0 348.46 58.08" fill="#f9b98e"/><path d="M 290.38 116.16 A 58.08 58.08 0 0 1  348.46 58.08 L 290.38 116.16 A 58.08 58.08 0 0 0 348.46 58.08" fill="#d4e3f9"/><path d="M 348.46 116.15 A 116.15 116.15 0 0 1  464.61 0 L 348.46 116.15 A 116.15 116.15 0 0 0 464.61 0" fill="#fac8a7"/><path d="M 464.62 116.15 A 116.15 116.15 0 0 1  580.77 0 L 464.62 116.15 A 116.15 116.15 0 0 0 580.77 0" fill="#a6c4f3"/><path d="M 813.08 116.15 A 116.15 116.15 0 0 1  929.23 0 L 813.08 116.15 A 116.15 116.15 0 0 0 929.23 0" fill="#f6904e"/><path d="M 929.23 0 A 116.15 116.15 0 0 1  1045.38 116.15 L 929.23 0 A 116.15 116.15 0 0 0 1045.38 116.15" fill="#7faaee"/><rect x="1277.6923076923078" y="0" width="116.15384615384616" height="116.15384615384616" fill="#ffffff"/><path d="M 1277.69 0 A 58.08 58.08 0 0 1  1335.77 58.08 L 1277.69 0 A 58.08 58.08 0 0 0 1335.77 58.08" fill="#fce0cd"/><path d="M 1277.69 116.16 A 58.08 58.08 0 0 1  1335.77 58.08 L 1277.69 116.16 A 58.08 58.08 0 0 0 1335.77 58.08" fill="#f9b78c"/><rect x="0" y="116.15384615384616" width="116.15384615384616" height="116.15384615384616" fill="#ffffff"/><path d="M 0 174.23000000000002 A 58.08 58.08 0 0 1  58.08 116.15 L 0 174.23000000000002 A 58.08 58.08 0 0 0 58.08 116.15" fill="#97baf1"/><path d="M 58.08 174.23000000000002 A 58.08 58.08 0 0 1  116.16 116.15 L 58.08 174.23000000000002 A 58.08 58.08 0 0 0 116.16 116.15" fill="#fbd0b4"/><path d="M 58.08 232.31 A 58.08 58.08 0 0 1  116.16 174.23 L 58.08 232.31 A 58.08 58.08 0 0 0 116.16 174.23" fill="#fdfdff"/><path d="M 464.62 232.3 A 116.15 116.15 0 0 1  580.77 116.15 L 464.62 232.3 A 116.15 116.15 0 0 0 580.77 116.15" fill="#fffcfa"/><rect x="580.7692307692308" y="116.15384615384616" width="116.15384615384616" height="116.15384615384616" fill="#ffffff"/><path d="M 580.77 174.23000000000002 A 58.08 58.08 0 0 1  638.85 116.15 L 580.77 174.23000000000002 A 58.08 58.08 0 0 0 638.85 116.15" fill="#edf3fd"/><path d="M 638.85 174.23 A 58.08 58.08 0 0 1  696.9300000000001 232.31 L 638.85 174.23 A 58.08 58.08 0 0 0 696.9300000000001 232.31" fill="#f8ae7d"/><rect x="813.0769230769231" y="116.15384615384616" width="116.15384615384616" height="116.15384615384616" fill="#ffffff"/><path d="M 813.08 174.23 A 58.08 58.08 0 0 1  871.1600000000001 232.31 L 813.08 174.23 A 58.08 58.08 0 0 0 871.1600000000001 232.31" fill="#fff9f6"/><path d="M 871.15 174.23 A 58.08 58.08 0 0 1  929.23 232.31 L 871.15 174.23 A 58.08 58.08 0 0 0 929.23 232.31" fill="#f7a26b"/><path d="M 929.23 116.15 A 116.15 116.15 0 0 1  1045.38 232.3 L 929.23 116.15 A 116.15 116.15 0 0 0 1045.38 232.3" fill="#fffcfa"/><path d="M 0 348.46000000000004 A 116.15 116.15 0 0 1  116.15 232.31 L 0 348.46000000000004 A 116.15 116.15 0 0 0 116.15 232.31" fill="#f8b181"/><path d="M 116.15 348.46000000000004 A 116.15 116.15 0 0 1  232.3 232.31 L 116.15 348.46000000000004 A 116.15 116.15 0 0 0 232.3 232.31" fill="#8bb2ef"/><rect x="464.61538461538464" y="232.30769230769232" width="116.15384615384616" height="116.15384615384616" fill="#ffffff"/><path d="M 464.62 290.38 A 58.08 58.08 0 0 1  522.7 348.46 L 464.62 290.38 A 58.08 58.08 0 0 0 522.7 348.46" fill="#fef8f4"/><rect x="580.7692307692308" y="232.30769230769232" width="116.15384615384616" height="116.15384615384616" fill="#ffffff"/><path d="M 638.85 232.31 A 58.08 58.08 0 0 1  696.9300000000001 290.39 L 638.85 232.31 A 58.08 58.08 0 0 0 696.9300000000001 290.39" fill="#83adee"/><path d="M 638.85 290.38 A 58.08 58.08 0 0 1  696.9300000000001 348.46 L 638.85 290.38 A 58.08 58.08 0 0 0 696.9300000000001 348.46" fill="#aecaf4"/><rect x="696.9230769230769" y="232.30769230769232" width="116.15384615384616" height="116.15384615384616" fill="#ffffff"/><path d="M 755 290.39 A 58.08 58.08 0 0 1  813.08 232.31 L 755 290.39 A 58.08 58.08 0 0 0 813.08 232.31" fill="#4182e5"/><rect x="813.0769230769231" y="232.30769230769232" width="116.15384615384616" height="116.15384615384616" fill="#ffffff"/><path d="M 1161.54 232.31 A 116.15 116.15 0 0 1  1277.69 348.46000000000004 L 1161.54 232.31 A 116.15 116.15 0 0 0 1277.69 348.46000000000004" fill="#4785e6"/><path d="M 1277.69 348.46000000000004 A 116.15 116.15 0 0 1  1393.8400000000001 232.31 L 1277.69 348.46000000000004 A 116.15 116.15 0 0 0 1393.8400000000001 232.31" fill="#f68f4b"/><path d="M 464.62 464.61 A 116.15 116.15 0 0 1  580.77 348.46 L 464.62 464.61 A 116.15 116.15 0 0 0 580.77 348.46" fill="#fac8a7"/><rect x="580.7692307692308" y="348.46153846153845" width="116.15384615384616" height="116.15384615384616" fill="#ffffff"/><path d="M 580.77 406.54 A 58.08 58.08 0 0 1  638.85 464.62 L 580.77 406.54 A 58.08 58.08 0 0 0 638.85 464.62" fill="#fac09a"/><path d="M 638.85 406.54 A 58.08 58.08 0 0 1  696.9300000000001 464.62 L 638.85 406.54 A 58.08 58.08 0 0 0 696.9300000000001 464.62" fill="#fef8f4"/><rect x="813.0769230769231" y="348.46153846153845" width="116.15384615384616" height="116.15384615384616" fill="#ffffff"/><path d="M 871.15 406.53999999999996 A 58.08 58.08 0 0 1  929.23 348.46 L 871.15 406.53999999999996 A 58.08 58.08 0 0 0 929.23 348.46" fill="#fdede2"/><path d="M 871.15 406.54 A 58.08 58.08 0 0 1  929.23 464.62 L 871.15 406.54 A 58.08 58.08 0 0 0 929.23 464.62" fill="#fbd3b8"/><rect x="929.2307692307693" y="348.46153846153845" width="116.15384615384616" height="116.15384615384616" fill="#ffffff"/><rect x="1161.5384615384617" y="348.46153846153845" width="116.15384615384616" height="116.15384615384616" fill="#ffffff"/><path d="M 1161.54 406.53999999999996 A 58.08 58.08 0 0 1  1219.62 348.46 L 1161.54 406.53999999999996 A 58.08 58.08 0 0 0 1219.62 348.46" fill="#fef8f3"/><path d="M 1219.62 406.53999999999996 A 58.08 58.08 0 0 1  1277.6999999999998 348.46 L 1219.62 406.53999999999996 A 58.08 58.08 0 0 0 1277.6999999999998 348.46" fill="#8fb5f0"/><rect x="1277.6923076923078" y="348.46153846153845" width="116.15384615384616" height="116.15384615384616" fill="#ffffff"/><path d="M 1335.77 348.46 A 58.08 58.08 0 0 1  1393.85 406.53999999999996 L 1335.77 348.46 A 58.08 58.08 0 0 0 1393.85 406.53999999999996" fill="#fcd7bf"/></g></svg>