<!-- Generated by IcoMoon.io -->
<svg version="1.1" xmlns="http://www.w3.org/2000/svg" width="1143" height="1000" viewBox="0 0 1143 1000">
<title>cedula-icon</title>
<path fill="#1e90ff" d="M571.429 631.139c0 48.549-31.808 83.147-71.429 83.147h-285.714c-39.62 0-71.429-34.599-71.429-83.147 0-86.495 21.205-182.478 109.375-182.478 27.344 15.625 64.174 42.411 104.911 42.411s77.567-26.786 104.911-42.411c88.17 0 109.375 95.982 109.375 182.478zM483.817 340.96c0 70.313-56.92 126.674-126.674 126.674s-126.674-56.361-126.674-126.674c0-69.755 56.92-126.674 126.674-126.674s126.674 56.92 126.674 126.674zM1000 589.286v35.714c0 10.045-7.813 17.857-17.857 17.857h-321.429c-10.045 0-17.857-7.813-17.857-17.857v-35.714c0-10.045 7.813-17.857 17.857-17.857h321.429c10.045 0 17.857 7.813 17.857 17.857zM1000 448.661v31.25c0 11.161-8.929 20.089-20.089 20.089h-316.964c-11.161 0-20.089-8.929-20.089-20.089v-31.25c0-11.161 8.929-20.089 20.089-20.089h316.964c11.161 0 20.089 8.929 20.089 20.089zM1000 303.571v35.714c0 10.045-7.813 17.857-17.857 17.857h-321.429c-10.045 0-17.857-7.813-17.857-17.857v-35.714c0-10.045 7.813-17.857 17.857-17.857h321.429c10.045 0 17.857 7.813 17.857 17.857zM1071.429 839.286v-678.571c0-9.486-8.37-17.857-17.857-17.857h-964.286c-9.486 0-17.857 8.37-17.857 17.857v678.571c0 9.486 8.37 17.857 17.857 17.857h196.429v-53.571c0-10.045 7.813-17.857 17.857-17.857h35.714c10.045 0 17.857 7.813 17.857 17.857v53.571h428.571v-53.571c0-10.045 7.813-17.857 17.857-17.857h35.714c10.045 0 17.857 7.813 17.857 17.857v53.571h196.429c9.486 0 17.857-8.37 17.857-17.857zM1142.857 160.714v678.571c0 49.107-40.179 89.286-89.286 89.286h-964.286c-49.107 0-89.286-40.179-89.286-89.286v-678.571c0-49.107 40.179-89.286 89.286-89.286h964.286c49.107 0 89.286 40.179 89.286 89.286z"></path>
</svg>
