<!-- Generated by IcoMoon.io -->
<svg version="1.1" xmlns="http://www.w3.org/2000/svg" width="1000" height="1000" viewBox="0 0 1000 1000">
<title>key-blue</title>
<path fill="#1e90ff" d="M687.5 0c-172.588 0-312.5 139.91-312.5 312.5 0 19.557 1.814 38.688 5.25 57.25l-380.25 380.25v187.5c0 34.518 27.982 62.5 62.5 62.5h62.5v-62.5h125v-125h125v-125h125l81.096-81.096c33.213 12.027 69.039 18.596 106.404 18.596 172.588 0 312.5-139.91 312.5-312.5s-139.912-312.5-312.5-312.5zM781.127 312.623c-51.777 0-93.75-41.973-93.75-93.75s41.973-93.75 93.75-93.75 93.75 41.973 93.75 93.75-41.973 93.75-93.75 93.75z"></path>
</svg>
