<svg id="Capa_1" data-name="Capa 1" xmlns="http://www.w3.org/2000/svg" viewBox="0 0 887.99 378.67"><defs><style>.cls-1{fill:#8bb1ef;}.cls-2,.cls-3{fill:#f8b281;}.cls-3{font-size:195.69px;font-family:BerlinSansFB-Reg, Berlin Sans FB;}</style></defs><path class="cls-1" d="M228.73,473.18q0-11,.72-33t.71-33c0-1.53-.79-2.29-2.39-2.29-2.16,0-5.43-.13-9.79-.38s-7.63-.39-9.79-.39c-1.15,0-2.2,1.25-3.16,3.73q-23,61-36,91.92-3.15,7.65-4.11,7.65-.77,0-4.68-9.37-16.64-39.93-39.75-90.77-1.73-3.92-2.68-3.92a162.67,162.67,0,0,0-19.59,1.72c-1.46.19-2.2.89-2.2,2.1q0,11,1,33t1,33q0,10.6-1,31.77t-1,31.77c0,1.21.8,1.82,2.39,1.82,1.15,0,2.85-.1,5.12-.29s4-.28,5.11-.28,2.74.09,5,.28,3.88.29,5,.29c1.59,0,2.38-1,2.38-3.15q0-12.33-.43-37t-.43-37a2.51,2.51,0,0,1,.77-2.11,3.52,3.52,0,0,1,1.24,1.34q16.44,37.45,24.37,56.38,6,14,9.27,21.69.95,1.62,9.93,1.62c4.14,0,6.44-.41,6.88-1.24q5.55-13,8.51-21.69,18.15-45.19,23-55.61a1.47,1.47,0,0,1,1.33-1.05c.51,0,.77.6.77,1.81q0,12.14-.77,36.41t-.76,36.41c0,2.1.8,3.15,2.39,3.15,1.15,0,2.9-.1,5.25-.29s4.11-.28,5.26-.28,2.88.09,5.21.28,4.06.29,5.2.29a2.11,2.11,0,0,0,2.39-2.39q0-10.41-.81-31.44T228.73,473.18Z" transform="translate(-96 -373.67)"/><path class="cls-2" d="M331.35,487.23q0-18.35-11.75-31.15a38.94,38.94,0,0,0-30-13.19q-19.31,0-32.59,15.19a50.86,50.86,0,0,0-12.61,34.31q0,22.07,13.19,35.3t35.35,13.24q22,0,36-14.91c1-1.08,1.52-1.81,1.52-2.2s-1.11-2.62-3.34-6.92-3.43-6.52-3.58-6.65a1.86,1.86,0,0,0-1-.19l-3.05,2.49a44.3,44.3,0,0,1-27.71,9.74,27.14,27.14,0,0,1-16.44-5.63q-8-5.92-9.27-14.34,55-4.1,59.15-5.63Q331.35,494.29,331.35,487.23Zm-28.28-3.92a239.85,239.85,0,0,1-33.83,2.86c-2.29,0-3.44-.66-3.44-2q0-8.79,6.84-15.86t15.62-7.07q7.83,0,14.09,6.11t6.26,14Q308.61,482.54,303.07,483.31Z" transform="translate(-96 -373.67)"/><path class="cls-2" d="M701.05,452.06q0-1.33-7.83-3.06a59.93,59.93,0,0,0-9.65-1.43q-1.64,0-2.68,6t-1.62,6a.83.83,0,0,1-.58-.29c-2.29-2.42-4-4.26-5.06-5.54a36.28,36.28,0,0,0-25.51-10.13q-20.75,0-33.45,14.43-12.13,13.86-12.13,35.07a49.29,49.29,0,0,0,12,33q12.7,14.8,31.24,14.81a33.27,33.27,0,0,0,15.1-3.82,56.68,56.68,0,0,0,10.51-7c3.06-2.48,4.78-3.73,5.16-3.73q.85,0,1.82,6.69c.63,4.46,1.56,6.69,2.77,6.69a75.75,75.75,0,0,0,7.88-.62,73.37,73.37,0,0,1,7.93-.62c1.75,0,2.6-.92,2.53-2.77l-.09-1.34Q697,492.49,697,491.53q0-15.87,3.73-37.75A10.82,10.82,0,0,0,701.05,452.06Zm-31.43,59.82Q662.06,521,650.89,521a24.17,24.17,0,0,1-19.11-8.89A29.67,29.67,0,0,1,624.42,492a30.13,30.13,0,0,1,7.36-20.25,24.06,24.06,0,0,1,19.11-9,23.17,23.17,0,0,1,18.82,9.08,30.58,30.58,0,0,1,7,20.16A30.16,30.16,0,0,1,669.62,511.88Z" transform="translate(-96 -373.67)"/><path class="cls-1" d="M586.48,473.18q0-11,.72-33t.72-33c0-1.53-.8-2.29-2.39-2.29-2.17,0-5.43-.13-9.8-.38s-7.63-.39-9.79-.39c-1.15,0-2.2,1.25-3.15,3.73q-23,61-36,91.92-3.15,7.65-4.11,7.65-.76,0-4.68-9.37-16.62-39.93-39.75-90.77-1.73-3.92-2.67-3.92A162.34,162.34,0,0,0,456,405.05c-1.47.19-2.2.89-2.2,2.1q0,11,1,33t1,33q0,10.6-1,31.77t-1,31.77c0,1.21.8,1.82,2.39,1.82,1.15,0,2.85-.1,5.11-.29s4-.28,5.11-.28,2.74.09,5,.28,3.89.29,5,.29c1.59,0,2.39-1,2.39-3.15q0-12.33-.43-37t-.43-37a2.51,2.51,0,0,1,.76-2.11,3.56,3.56,0,0,1,1.25,1.34q16.42,37.45,24.36,56.38,6,14,9.27,21.69,1,1.62,9.94,1.62,6.21,0,6.88-1.24,5.54-13,8.5-21.69,18.15-45.19,23-55.61a1.49,1.49,0,0,1,1.34-1.05c.51,0,.76.6.76,1.81q0,12.14-.76,36.41t-.77,36.41c0,2.1.8,3.15,2.39,3.15,1.15,0,2.9-.1,5.26-.29s4.11-.28,5.25-.28,2.89.09,5.21.28,4.06.29,5.21.29a2.12,2.12,0,0,0,2.39-2.39q0-10.41-.81-31.44T586.48,473.18Z" transform="translate(-96 -373.67)"/><path class="cls-2" d="M436.56,405.24q0-2-1.62-2-3.45,0-10.42.63c-4.65.41-8.16.62-10.51.62-1,0-1.53.76-1.53,2.29,0,2.17.1,5.38.29,9.65s.28,7.45.28,9.56v31a1.25,1.25,0,0,1-.76,1.33q-4-3.63-8.12-7.16a33,33,0,0,0-21-7.07q-20,0-32.4,14.52-11.85,13.86-11.85,34.21,0,19.59,11.76,33.44a39.67,39.67,0,0,0,31.72,14.72q17,0,30.1-14.14a5.5,5.5,0,0,1,1.43-1.25c.32.07.56,2.31.72,6.74s.68,6.64,1.58,6.64,2.35-.1,4.2-.29,3.25-.28,4.21-.28c-.2,0,1.05.09,3.72.28a33.44,33.44,0,0,0,5.16,0c1.78-.19,2.64-.6,2.58-1.24l-.09-1.24q-1.64-19.39-1.63-57.14,0-12.24,1.1-36.84T436.56,405.24ZM405.79,512.45a23.41,23.41,0,0,1-18.92,9.08,24.24,24.24,0,0,1-19.11-9,29.14,29.14,0,0,1-7.55-20,30.93,30.93,0,0,1,7.26-20.64,24.17,24.17,0,0,1,19.4-9.18q11.17,0,18.73,9.27a32.77,32.77,0,0,1,.19,40.42Z" transform="translate(-96 -373.67)"/><text class="cls-3" transform="translate(670.72 164.87)">x</text><path class="cls-1" d="M799.61,623.13c0-4.88,1.69-10.8-.5-14.31-2-3.25-8.23-3.82-12.54-5.72-16.4-7.23-28.5-18.83-35-35.66-1.32-3.4-1-7.44-1.54-11.16a30.15,30.15,0,0,0-1.15-5.35q-15.21-46.68-30.49-93.33c-7.9-24.26,3.73-44.21,28.72-49.49,1.24-.26,2.92-.55,3.52-1.43,3.06-4.53,7.45-5.23,12.39-5,4.19.17,8.41-.09,12.6.1,5.86.26,9.59,4.1,9.89,9.94a46.82,46.82,0,0,1,0,6A9.6,9.6,0,0,1,776,427a139.62,139.62,0,0,1-16.62-.08,11.47,11.47,0,0,1-7-3.12c-2.14-2.37-4.1-2.36-6.64-1.68-12.38,3.29-19.44,15.27-15.3,28.53,10.3,33,21.3,65.79,32,98.66,7.55,9.43,9.93,22.08,20.34,30,23.59,17.82,54.61,8.54,66.83-18.42C865.3,526,874.21,489.06,887,453.36c5.22-14.53-1-27.36-14.24-31.17-2.73-.79-4.78-.77-7,1.77-3.92,4.43-25.25,4.55-29.69.63-3.4-3-4.87-11.38-2.71-16.55,2-4.82,5.92-6.51,10.94-6.38,4.19.11,8.4.13,12.59,0s7.49,1.05,10.2,4.36a7.67,7.67,0,0,0,4.21,2.12c24.93,5.25,36.4,25.19,28.43,49.65-10,30.64-20.05,61.26-29.93,91.94-.93,2.88-.66,6.14-1.08,9.21a30.78,30.78,0,0,1-1.28,6.36c-7.8,21.31-23.08,34.58-44.66,40.68-3.54,1-4.5,2.37-4.36,5.78a156.82,156.82,0,0,1,0,18.14c-.34,4.53-1.71,9-2.61,13.47a13.91,13.91,0,0,0-.37,2.47c-.21,19.06.79,38,7.33,56.16,7.51,20.81,22.09,34,44.36,36.85,25.27,3.23,44.46-18,38.38-42.61-2.67-10.8-7.84-21-11.87-31.46-5.23-13.59-12-26.82-15.39-40.86C869.87,589.26,890.87,559,926.09,553c4.78-.81,8.73-1.73,12.18-6.23,6.15-8,18.35-7.61,25.42-.26a17.79,17.79,0,0,1-1,25.3c-7.62,6.77-19.66,6.11-25.4-2.18-2.81-4.07-5.59-4.21-9.61-3.41C898.82,572,883.57,596,892,624.61c3.94,13.43,10.83,26,15.87,39.11,4.3,11.23,9.24,22.49,11.48,34.2,5.93,30.94-19.21,54.3-47,54.41-27.16.11-46.55-13.82-58.63-37.48C804.2,696.2,802.9,675.56,801.79,655c-.58-10.63-1.67-21.23-2.52-31.84Z" transform="translate(-96 -373.67)"/><path class="cls-1" d="M921.76,573.56c7.11-3.49,8.26-3.34,13.74,1.78a22.63,22.63,0,0,0,31.17-32.82c-8.9-8.65-23.47-9-31.59.37-4.44,5.12-9.7,4.89-15.19,6.09,3.1-14,17.69-24.1,33.16-23.24,15.81.88,29,13.6,30.76,29.59a33.14,33.14,0,0,1-24.56,35.35C944.15,594.69,927.82,587.23,921.76,573.56Z" transform="translate(-96 -373.67)"/></svg>