<!-- Generated by IcoMoon.io -->
<svg version="1.1" xmlns="http://www.w3.org/2000/svg" width="1143" height="1000" viewBox="0 0 1143 1000">
<title>seguro</title>
<path fill="#1e90ff" d="M500 676.339c0-73.661-17.857-158.482-91.518-158.482-22.321 22.321-53.014 35.714-87.054 35.714s-64.732-13.393-87.054-35.714c-73.661 0-91.518 84.821-91.518 158.482 0 40.736 26.786 73.661 59.71 73.661h237.724c32.924 0 59.71-32.924 59.71-73.661zM428.571 428.571c0-59.151-47.991-107.143-107.143-107.143s-107.143 47.991-107.143 107.143 47.991 107.143 107.143 107.143 107.143-47.991 107.143-107.143zM1000 696.429v-35.714c0-10.045-7.813-17.857-17.857-17.857h-392.857c-10.045 0-17.857 7.813-17.857 17.857v35.714c0 10.045 7.813 17.857 17.857 17.857h392.857c10.045 0 17.857-7.813 17.857-17.857zM785.714 553.571v-35.714c0-10.045-7.813-17.857-17.857-17.857h-178.571c-10.045 0-17.857 7.813-17.857 17.857v35.714c0 10.045 7.813 17.857 17.857 17.857h178.571c10.045 0 17.857-7.813 17.857-17.857zM1000 553.571v-35.714c0-10.045-7.813-17.857-17.857-17.857h-107.143c-10.045 0-17.857 7.813-17.857 17.857v35.714c0 10.045 7.813 17.857 17.857 17.857h107.143c10.045 0 17.857-7.813 17.857-17.857zM1000 410.714v-35.714c0-10.045-7.813-17.857-17.857-17.857h-392.857c-10.045 0-17.857 7.813-17.857 17.857v35.714c0 10.045 7.813 17.857 17.857 17.857h392.857c10.045 0 17.857-7.813 17.857-17.857zM71.429 214.286h1000v-53.571c0-10.045-7.813-17.857-17.857-17.857h-964.286c-10.045 0-17.857 7.813-17.857 17.857v53.571zM1142.857 160.714v678.571c0 49.107-40.179 89.286-89.286 89.286h-964.286c-49.107 0-89.286-40.179-89.286-89.286v-678.571c0-49.107 40.179-89.286 89.286-89.286h964.286c49.107 0 89.286 40.179 89.286 89.286z"></path>
</svg>
