<!-- Generated by IcoMoon.io -->
<svg version="1.1" xmlns="http://www.w3.org/2000/svg" width="1000" height="1000" viewBox="0 0 1000 1000">
<title>switch</title>
<path d="M937.5 500c0 241.625-195.875 437.5-437.5 437.5s-437.5-195.875-437.5-437.5c0-106.5 38.313-203.844 101.563-279.688 4.813-8.875 11.5-16.594 19.844-22.188 1.406-1.469 2.656-3.125 4.094-4.563 0.031 0.719 0.344 1.406 0.406 2.125 9.031-5.062 19.281-8.188 30.344-8.188 34.5 0 62.5 28 62.5 62.5 0 21.75-11.094 40.875-27.969 52.063 1.094 0.813 1.875 1.813 3 2.625-42.969 53.5-68.781 121.344-68.781 195.313 0 172.594 139.906 312.5 312.5 312.5s312.5-139.906 312.5-312.5c0-73.969-25.813-141.813-68.781-195.313 1.125-0.813 1.938-1.813 3-2.625-16.875-11.188-27.969-30.313-27.969-52.063 0-34.5 28-62.5 62.5-62.5 11.063 0 21.313 3.125 30.344 8.188 0.063-0.719 0.375-1.406 0.438-2.125 1.406 1.438 2.656 3.094 4.094 4.563 8.344 5.594 15 13.313 19.844 22.188 63.188 75.844 101.531 173.187 101.531 279.688zM531.25 562.5h-62.5c-17.281 0-31.25-13.969-31.25-31.25v-437.5c0-17.25 13.969-31.25 31.25-31.25h62.5c17.281 0 31.25 14 31.25 31.25v437.5c0 17.281-13.969 31.25-31.25 31.25z"></path>
</svg>
