<!-- Generated by IcoMoon.io -->
<svg version="1.1" xmlns="http://www.w3.org/2000/svg" width="857" height="1000" viewBox="0 0 857 1000">
<title>user-o</title>
<path fill="#1e90ff" d="M670.201 437.5c78.683 22.88 186.942 100.446 186.942 354.353 0 114.955-85.38 208.147-190.29 208.147h-476.563c-104.911 0-190.29-93.192-190.29-208.147 0-253.906 108.259-331.474 186.942-354.353-27.901-44.085-44.085-95.982-44.085-151.786 0-157.366 128.349-285.714 285.714-285.714s285.714 128.349 285.714 285.714c0 55.804-16.183 107.701-44.085 151.786zM428.571 71.429c-118.304 0-214.286 95.982-214.286 214.286s95.982 214.286 214.286 214.286 214.286-95.982 214.286-214.286-95.982-214.286-214.286-214.286zM666.853 928.571c65.29 0 118.861-60.826 118.861-136.719 0-175.781-59.151-285.714-169.643-291.295-50.224 44.085-115.514 70.87-187.5 70.87s-137.276-26.786-187.5-70.87c-110.491 5.58-169.643 115.514-169.643 291.295 0 75.893 53.571 136.719 118.861 136.719h476.563z"></path>
</svg>
