<!-- Generated by IcoMoon.io -->
<svg version="1.1" xmlns="http://www.w3.org/2000/svg" width="1000" height="1000" viewBox="0 0 1000 1000">
<title>user-icon</title>
<path fill="#06283d" d="M849.889 747.21c-14.509-104.353-56.92-196.986-151.786-209.821-49.107 53.571-119.978 87.611-198.103 87.611s-148.995-34.040-198.103-87.611c-94.866 12.835-137.276 105.469-151.786 209.821 77.567 109.375 205.357 181.361 349.889 181.361s272.321-71.986 349.889-181.361zM714.286 357.143c0-118.304-95.982-214.286-214.286-214.286s-214.286 95.982-214.286 214.286 95.982 214.286 214.286 214.286 214.286-95.982 214.286-214.286zM1000 500c0 275.111-223.214 500-500 500-276.228 0-500-224.33-500-500 0-276.228 223.772-500 500-500s500 223.772 500 500z"></path>
</svg>
