<!-- Generated by IcoMoon.io -->
<svg version="1.1" xmlns="http://www.w3.org/2000/svg" width="1000" height="1000" viewBox="0 0 1000 1000">
<title>key</title>
<path fill="#f58840" d="M579.138 608.362l-141.638 141.638h-93.75v93.75h-93.75v93.75h-156.25v-156.25l329.138-329.138c-10.758-28.871-16.638-60.117-16.638-92.737 0-146.7 118.925-265.625 265.625-265.625s265.625 118.925 265.625 265.625c0 146.7-118.925 265.625-265.625 265.625-32.62 0-63.866-5.88-92.737-16.638v0 0zM843.75 281.25c0-51.776-41.974-93.75-93.75-93.75s-93.75 41.974-93.75 93.75c0 51.776 41.974 93.75 93.75 93.75s93.75-41.974 93.75-93.75v0z"></path>
</svg>
